if (_typeface_js && _typeface_js.loadFace) _typeface_js.loadFace({"glyphs":{"S":{"x_min":61.109375,"x_max":666,"ha":726,"o":"m 622 863 q 604 851 615 851 q 580 864 594 851 q 541 892 566 877 q 481 921 517 908 q 390 935 444 935 q 296 919 337 935 q 228 878 255 904 q 186 816 200 851 q 172 744 172 782 q 193 661 172 693 q 249 605 214 628 q 328 567 284 582 q 419 536 372 551 q 509 502 465 521 q 588 456 553 484 q 644 388 623 428 q 666 286 666 347 q 644 170 666 225 q 583 75 623 116 q 484 12 543 35 q 351 -11 426 -11 q 184 23 254 -11 q 61 117 113 57 l 80 148 q 100 158 88 158 q 116 150 106 158 q 139 129 125 141 q 173 103 153 117 q 218 76 192 88 q 277 56 243 64 q 353 48 310 48 q 457 65 411 48 q 534 113 503 83 q 583 186 566 144 q 600 276 600 228 q 578 362 600 328 q 522 418 557 395 q 443 456 487 441 q 353 486 399 471 q 262 518 306 500 q 183 565 218 536 q 127 635 148 593 q 106 740 106 677 q 124 835 106 789 q 179 916 143 881 q 269 972 215 951 q 390 994 322 994 q 527 969 466 994 q 638 895 588 945 l 622 863 "},"\u0000":{"x_min":0,"x_max":0,"ha":0},"/":{"x_min":-3.46875,"x_max":494.484375,"ha":495,"o":"m 63 -30 q 46 -51 57 -44 q 23 -58 35 -58 l -3 -58 l 428 985 q 466 1011 438 1011 l 494 1011 l 63 -30 "},"K":{"x_min":167,"x_max":891.53125,"ha":917,"o":"m 238 529 l 296 529 q 319 530 309 529 q 336 534 328 531 q 351 542 344 537 q 366 554 358 547 l 763 962 q 783 978 774 973 q 806 983 792 983 l 864 983 l 435 541 q 411 520 422 527 q 389 507 401 512 q 415 494 403 503 q 438 472 426 486 l 891 0 l 833 0 q 808 5 815 0 q 792 18 800 10 l 376 443 q 362 456 368 450 q 348 465 356 461 q 328 471 340 469 q 301 473 317 473 l 238 473 l 238 0 l 167 0 l 167 984 l 238 984 l 238 529 "},"7":{"x_min":90.28125,"x_max":743.8125,"ha":806,"o":"m 743 983 l 743 953 q 741 932 743 941 q 735 917 738 923 l 284 25 q 269 6 279 13 q 245 0 260 0 l 200 0 l 653 889 q 675 921 662 907 l 108 921 q 95 927 100 921 q 90 940 90 932 l 90 983 l 743 983 "},"d":{"x_min":60,"x_max":639,"ha":758,"o":"m 602 0 q 583 18 585 0 l 575 127 q 468 27 529 64 q 330 -9 406 -9 q 131 79 202 -9 q 60 343 60 167 q 79 485 60 419 q 138 599 99 550 q 232 675 176 647 q 362 703 289 703 q 483 676 432 703 q 573 600 535 650 l 573 1010 l 639 1010 l 639 0 l 602 0 m 348 44 q 473 79 417 44 q 573 178 529 114 l 573 543 q 484 626 532 602 q 374 651 435 651 q 267 628 313 651 q 190 565 221 606 q 143 468 159 525 q 128 343 128 411 q 185 116 128 189 q 348 44 242 44 "},",":{"x_min":75.828125,"x_max":199,"ha":274,"o":"m 75 58 q 92 100 75 83 q 136 118 109 118 q 182 97 166 118 q 199 43 199 76 q 191 -14 199 15 q 170 -72 184 -43 q 136 -127 156 -100 q 93 -175 117 -153 l 83 -165 q 77 -153 77 -159 q 80 -146 77 -150 q 84 -140 82 -143 q 102 -120 91 -133 q 124 -88 113 -106 q 143 -47 134 -69 q 155 0 152 -25 q 145 -2 150 -1 q 134 -3 140 -3 q 92 14 108 -3 q 75 58 75 31 "},"Y":{"x_min":16.765625,"x_max":815.21875,"ha":833,"o":"m 452 405 l 452 0 l 380 0 l 380 405 l 16 983 l 78 983 q 94 978 88 983 q 105 965 100 973 l 386 514 q 403 483 396 498 q 416 453 410 468 q 428 483 421 468 q 445 514 435 498 l 726 965 q 736 978 730 973 q 752 983 742 983 l 815 983 l 452 405 "},"E":{"x_min":146,"x_max":735.40625,"ha":821,"o":"m 735 983 l 735 924 l 218 924 l 218 527 l 648 527 l 648 469 l 218 469 l 218 59 l 735 59 l 735 0 l 146 0 l 146 983 l 735 983 "},"y":{"x_min":15.28125,"x_max":660.46875,"ha":676,"o":"m 263 -221 q 252 -237 259 -231 q 233 -244 245 -244 l 186 -244 l 307 26 l 15 691 l 70 691 q 86 685 80 691 q 95 674 92 680 l 327 136 q 335 115 331 126 q 341 93 338 104 q 348 115 344 104 q 356 136 352 126 l 586 674 q 595 686 589 681 q 609 691 602 691 l 660 691 l 263 -221 "},"\"":{"x_min":125,"x_max":384,"ha":510,"o":"m 183 983 l 183 780 l 176 673 q 170 655 175 662 q 153 648 165 648 q 138 655 143 648 q 131 673 132 662 l 125 780 l 125 983 l 183 983 m 384 983 l 384 780 l 377 673 q 371 655 376 662 q 354 648 366 648 q 339 655 344 648 q 332 673 333 662 l 326 780 l 326 983 l 384 983 "},"g":{"x_min":52,"x_max":670.3125,"ha":701,"o":"m 340 703 q 424 691 385 703 q 493 660 462 680 l 670 660 l 670 637 q 650 619 670 620 l 546 611 q 575 552 565 585 q 586 481 586 519 q 567 391 586 431 q 517 321 549 350 q 440 276 485 292 q 340 261 395 261 q 232 279 280 261 q 186 239 203 262 q 170 194 170 216 q 190 148 170 164 q 246 125 211 132 q 324 116 280 118 q 414 111 368 114 q 503 103 459 109 q 581 81 547 96 q 637 37 616 65 q 658 -37 658 9 q 636 -120 658 -80 q 574 -190 614 -159 q 475 -239 533 -221 q 346 -258 418 -258 q 218 -243 273 -258 q 126 -202 163 -228 q 70 -144 89 -177 q 52 -73 52 -110 q 88 21 52 -18 q 187 82 124 60 q 132 116 152 94 q 112 178 112 138 q 117 208 112 192 q 134 240 123 224 q 160 270 145 256 q 197 295 176 284 q 120 370 147 323 q 93 481 93 418 q 110 572 93 531 q 160 641 128 612 q 238 687 193 671 q 340 703 284 703 m 597 -47 q 579 5 597 -14 q 534 36 562 25 q 468 51 505 47 q 390 58 431 56 q 309 62 350 60 q 232 70 268 64 q 183 46 206 60 q 145 16 161 33 q 120 -21 129 0 q 111 -65 111 -41 q 126 -122 111 -96 q 172 -167 142 -148 q 246 -197 202 -186 q 347 -209 290 -209 q 445 -197 400 -209 q 525 -163 491 -185 q 577 -112 558 -142 q 597 -47 597 -82 m 340 306 q 419 318 384 306 q 478 354 454 331 q 513 409 501 377 q 526 480 526 441 q 513 551 526 518 q 476 606 500 583 q 418 641 452 629 q 340 654 384 654 q 261 641 296 654 q 203 606 227 629 q 166 551 179 583 q 154 480 154 518 q 166 409 154 441 q 203 354 179 377 q 261 318 227 331 q 340 306 296 306 "},"ƒ":{"x_min":82,"x_max":692,"ha":805,"o":"m 440 554 l 374 9 q 342 -107 365 -58 q 281 -188 318 -156 q 193 -235 243 -220 q 82 -250 143 -250 l 82 -216 q 106 -194 82 -194 q 175 -182 142 -193 q 236 -147 208 -171 q 282 -84 263 -123 q 308 11 301 -45 l 374 551 l 240 558 q 222 575 222 559 l 222 603 l 380 603 l 396 735 q 487 931 412 868 q 689 995 562 995 l 689 959 q 664 939 689 939 q 593 928 627 939 q 533 893 560 917 q 487 830 506 868 q 461 734 468 791 l 443 603 l 692 603 l 692 554 l 440 554 "},"e":{"x_min":61,"x_max":645,"ha":710,"o":"m 373 702 q 481 681 431 702 q 567 623 530 661 q 624 528 603 584 q 645 399 645 472 q 640 378 645 384 q 626 373 635 373 l 127 373 l 127 359 q 145 223 127 282 q 196 124 163 164 q 277 64 229 84 q 382 44 324 44 q 472 55 434 44 q 537 81 511 66 q 578 106 563 95 q 600 118 593 118 q 614 111 609 118 l 632 89 q 588 50 615 68 q 527 19 561 32 q 455 -1 493 6 q 377 -9 416 -9 q 248 15 306 -9 q 148 87 190 40 q 83 203 106 134 q 61 359 61 271 q 82 496 61 433 q 143 605 103 559 q 241 676 183 650 q 373 702 299 702 m 374 653 q 278 636 320 653 q 205 588 236 619 q 155 513 174 556 q 130 415 136 469 l 585 415 q 569 514 585 470 q 526 589 554 559 q 460 636 499 620 q 374 653 421 653 "},"J":{"x_min":61.578125,"x_max":485,"ha":631,"o":"m 485 327 q 464 182 485 245 q 405 75 443 118 q 313 10 367 32 q 190 -11 258 -11 q 127 -6 159 -11 q 61 9 95 -1 q 64 28 62 19 q 65 48 65 38 q 70 59 67 54 q 84 64 74 64 q 99 61 90 64 q 120 56 108 59 q 148 51 132 53 q 184 49 163 49 q 279 65 237 49 q 351 116 322 82 q 397 203 381 151 q 413 326 413 255 l 413 983 l 485 983 l 485 327 "},"|":{"x_min":182,"x_max":234,"ha":417,"o":"m 182 1054 l 234 1054 l 234 -244 l 182 -244 l 182 1054 "},"^":{"x_min":141,"x_max":656,"ha":805,"o":"m 377 983 l 419 983 l 656 556 l 608 556 q 595 560 601 556 q 585 571 589 565 l 418 874 q 407 897 412 886 q 399 918 402 907 q 391 896 395 907 q 380 874 386 885 l 213 571 q 204 561 210 566 q 190 556 199 556 l 141 556 l 377 983 "},"q":{"x_min":60,"x_max":639,"ha":758,"o":"m 639 691 l 639 -244 l 573 -244 l 573 122 q 466 26 527 61 q 330 -9 405 -9 q 131 79 202 -9 q 60 343 60 167 q 79 485 60 419 q 138 599 99 550 q 232 675 176 647 q 361 703 288 703 q 485 675 433 703 q 576 595 538 648 l 582 673 q 602 691 582 691 l 639 691 m 348 44 q 473 79 417 44 q 573 178 529 114 l 573 543 q 485 625 535 600 q 374 651 436 651 q 267 628 313 651 q 190 565 221 606 q 143 468 159 525 q 128 343 128 411 q 185 116 128 189 q 348 44 242 44 "},"b":{"x_min":119,"x_max":698,"ha":758,"o":"m 119 0 l 119 1010 l 185 1010 l 185 570 q 292 666 231 631 q 428 702 352 702 q 626 614 555 702 q 698 349 698 526 q 678 208 698 274 q 619 94 658 143 q 525 18 581 46 q 396 -9 469 -9 q 271 19 323 -9 q 182 102 219 47 l 177 17 q 159 0 175 0 l 119 0 m 409 649 q 284 613 340 649 q 185 515 228 578 l 185 150 q 272 66 224 90 q 383 43 320 43 q 490 65 444 43 q 567 128 536 87 q 614 225 598 168 q 630 349 630 281 q 572 576 630 503 q 409 649 515 649 "},"D":{"x_min":146,"x_max":973,"ha":1056,"o":"m 973 491 q 938 286 973 377 q 843 131 904 195 q 695 34 781 68 q 504 0 609 0 l 146 0 l 146 983 l 504 983 q 695 948 609 983 q 843 851 781 914 q 938 696 904 787 q 973 491 973 605 m 899 491 q 870 675 899 594 q 790 811 842 755 q 665 895 738 866 q 504 925 593 925 l 218 925 l 218 58 l 504 58 q 665 87 593 58 q 790 171 738 116 q 870 307 842 227 q 899 491 899 388 "},"♩":{"x_min":-1,"x_max":2,"ha":1,"o":"m -1 1010 l 2 1010 l 2 -244 l -1 -244 l -1 1010 "},"z":{"x_min":51.390625,"x_max":573.65625,"ha":628,"o":"m 573 663 q 563 636 573 648 l 131 52 l 556 52 l 556 0 l 51 0 l 51 26 q 61 52 51 38 l 495 639 l 74 639 l 74 691 l 573 691 l 573 663 "},"w":{"x_min":15.28125,"x_max":1008.40625,"ha":1024,"o":"m 15 691 l 65 691 q 81 685 75 691 q 90 674 88 680 l 264 129 q 272 98 269 113 q 277 69 275 84 q 285 98 281 84 q 295 129 289 113 l 480 679 q 500 695 485 695 l 527 695 q 547 679 542 695 l 729 129 q 746 68 740 97 q 752 98 749 83 q 761 129 755 113 l 936 674 q 959 691 941 691 l 1008 691 l 777 0 l 728 0 q 712 14 717 0 l 522 575 q 516 596 519 586 q 511 617 513 607 q 507 596 509 607 q 501 575 504 586 l 309 14 q 293 0 305 0 l 246 0 l 15 691 "},"$":{"x_min":104.796875,"x_max":718,"ha":806,"o":"m 375 -10 q 220 28 286 -5 q 104 118 154 62 l 123 145 q 143 155 131 155 q 158 148 149 155 q 181 128 168 140 q 212 103 194 117 q 254 78 230 90 q 309 57 278 66 q 378 46 339 48 l 401 487 q 308 520 353 502 q 229 566 264 538 q 172 635 194 594 q 151 739 151 676 q 169 832 151 787 q 222 911 187 876 q 308 968 257 946 q 425 992 359 989 l 431 1108 q 437 1124 432 1118 q 452 1130 443 1130 l 477 1130 l 470 991 q 592 960 540 986 q 689 890 645 934 l 674 866 q 656 854 667 854 q 634 866 647 854 q 598 891 620 877 q 544 918 576 905 q 467 934 512 931 l 446 537 q 512 516 479 527 q 575 491 545 505 q 631 459 606 477 q 676 416 657 441 q 707 360 696 391 q 718 287 718 328 q 697 174 718 227 q 639 81 677 121 q 546 17 601 42 q 420 -10 491 -6 l 412 -156 q 406 -171 412 -165 q 392 -178 401 -178 l 367 -178 l 375 -10 m 655 277 q 637 355 655 323 q 591 409 620 387 q 524 446 562 431 q 444 474 486 461 l 423 46 q 522 68 478 49 q 594 118 565 87 q 639 190 624 149 q 655 277 655 230 m 213 744 q 228 670 213 701 q 269 618 243 640 q 330 580 296 596 q 403 552 364 565 l 423 935 q 331 916 370 932 q 265 873 292 899 q 226 813 239 847 q 213 744 213 780 "},"\\":{"x_min":-5.5625,"x_max":492.40625,"ha":497,"o":"m -5 1011 l 22 1011 q 60 985 50 1011 l 492 -58 l 465 -58 q 442 -51 453 -58 q 425 -30 431 -44 l -5 1011 "},"~":{"x_min":97,"x_max":708,"ha":805,"o":"m 540 394 q 587 403 566 394 q 623 429 608 412 q 645 469 637 446 q 653 519 653 491 l 708 519 q 696 448 708 480 q 664 391 685 415 q 613 353 644 367 q 544 339 583 339 q 471 352 508 339 q 397 383 434 366 q 327 413 361 399 q 263 426 293 426 q 216 417 237 426 q 181 391 196 408 q 159 351 167 374 q 150 302 151 329 l 97 302 q 108 372 97 340 q 140 429 119 405 q 191 467 160 453 q 260 481 221 481 q 333 468 296 481 q 406 437 370 454 q 476 407 442 421 q 540 394 510 394 "},"-":{"x_min":69,"x_max":392,"ha":461,"o":"m 69 440 l 392 440 l 392 384 l 69 384 l 69 440 "},"Q":{"x_min":85,"x_max":1063.28125,"ha":1108,"o":"m 1023 492 q 1008 352 1023 417 q 965 231 993 286 q 897 132 937 176 q 807 57 857 88 l 1063 -216 l 1003 -216 q 978 -212 989 -216 q 959 -198 967 -208 l 749 27 q 656 0 705 9 q 553 -10 607 -10 q 363 25 450 -10 q 215 127 277 61 q 119 285 153 192 q 85 492 85 378 q 119 697 85 605 q 215 856 153 790 q 363 957 277 921 q 553 994 450 994 q 744 958 658 994 q 892 856 831 922 q 988 697 954 790 q 1023 492 1023 605 m 949 492 q 920 676 949 594 q 840 815 892 758 q 715 902 788 872 q 553 933 642 933 q 393 902 465 933 q 268 815 320 872 q 186 676 215 758 q 158 492 158 594 q 186 307 158 388 q 268 168 215 225 q 393 81 320 111 q 553 52 465 52 q 715 81 642 52 q 840 168 788 111 q 920 307 892 225 q 949 492 949 388 "},"M":{"x_min":146,"x_max":1117,"ha":1263,"o":"m 618 286 q 636 244 628 266 q 645 266 640 255 q 655 287 649 277 l 1041 969 q 1052 980 1046 978 q 1067 983 1057 983 l 1117 983 l 1117 0 l 1054 0 l 1054 837 q 1056 875 1054 855 l 669 188 q 641 170 659 170 l 630 170 q 602 188 613 170 l 206 876 q 208 837 208 856 l 208 0 l 146 0 l 146 983 l 194 983 q 210 980 204 983 q 221 969 216 978 l 618 286 l 618 286 "},"C":{"x_min":86,"x_max":899.328125,"ha":977,"o":"m 859 165 q 871 160 866 165 l 899 130 q 832 71 868 97 q 753 27 796 45 q 660 0 711 9 q 547 -11 609 -11 q 360 24 445 -11 q 214 126 275 60 q 120 284 154 191 q 86 491 86 377 q 121 696 86 603 q 219 854 156 788 q 371 957 283 921 q 567 994 460 994 q 665 986 620 994 q 748 963 709 978 q 820 926 786 948 q 887 874 854 903 l 866 843 q 848 835 860 835 q 832 842 842 835 q 808 860 822 849 q 771 884 793 871 q 721 907 750 896 q 654 925 692 918 q 567 933 615 933 q 402 902 477 933 q 273 813 327 871 q 189 674 219 756 q 159 491 159 593 q 188 305 159 387 q 271 167 218 223 q 396 80 324 110 q 552 50 468 50 q 646 56 604 50 q 722 77 687 63 q 786 111 756 91 q 845 159 816 131 q 852 163 849 161 q 859 165 855 165 "},"[":{"x_min":122,"x_max":342.59375,"ha":417,"o":"m 122 -183 l 122 1053 l 342 1053 l 342 1028 q 336 1013 342 1019 q 321 1008 330 1008 l 178 1008 l 178 -138 l 321 -138 q 336 -143 330 -138 q 342 -158 342 -149 l 342 -183 l 122 -183 "},"L":{"x_min":146,"x_max":683,"ha":710,"o":"m 217 60 l 683 60 l 683 0 l 146 0 l 146 983 l 217 983 l 217 60 "},"!":{"x_min":160,"x_max":288,"ha":448,"o":"m 259 983 l 259 585 q 258 526 259 554 q 256 470 257 498 q 253 409 255 441 q 249 338 251 377 l 204 338 q 199 409 201 377 q 196 470 197 441 q 194 526 195 498 q 194 585 194 554 l 194 983 l 259 983 m 160 53 q 164 78 160 66 q 178 98 169 90 q 198 112 186 107 q 223 118 209 118 q 248 112 236 118 q 268 98 260 107 q 282 78 277 90 q 288 53 288 66 q 282 28 288 39 q 268 8 277 16 q 248 -5 260 0 q 223 -10 236 -10 q 178 8 196 -10 q 160 53 160 26 "}," ":{"x_min":0,"x_max":0,"ha":268},"{":{"x_min":43.65625,"x_max":344.015625,"ha":417,"o":"m 152 309 q 144 351 152 332 q 122 384 136 370 q 88 406 108 398 q 43 414 67 414 l 43 456 q 88 463 67 456 q 122 485 108 471 q 144 518 136 499 q 152 560 152 537 q 145 635 152 599 q 131 707 139 671 q 117 779 123 743 q 111 855 111 816 q 124 933 111 897 q 162 996 137 969 q 223 1038 187 1023 q 305 1053 259 1053 l 344 1053 l 344 1023 q 338 1012 344 1016 q 326 1008 332 1008 l 303 1008 q 249 997 273 1008 q 206 967 224 987 q 179 920 189 948 q 169 858 169 892 q 175 781 169 819 q 189 707 181 744 q 202 634 196 671 q 209 561 209 598 q 200 514 209 536 q 177 476 191 492 q 144 450 163 461 q 106 434 126 439 q 144 419 126 430 q 177 392 163 408 q 200 355 191 376 q 209 308 209 334 q 202 235 209 271 q 189 161 196 198 q 175 87 181 125 q 169 11 169 50 q 179 -50 169 -22 q 206 -97 189 -78 q 249 -127 224 -117 q 303 -138 273 -138 l 326 -138 q 338 -142 332 -138 q 344 -153 344 -146 l 344 -183 l 305 -183 q 223 -168 259 -183 q 162 -126 187 -153 q 124 -63 137 -99 q 111 14 111 -27 q 117 90 111 53 q 131 162 123 126 q 145 234 139 198 q 152 309 152 271 "},"X":{"x_min":11.8125,"x_max":820.203125,"ha":833,"o":"m 366 504 l 27 983 l 97 983 q 112 978 107 983 q 120 969 116 974 l 418 538 q 423 549 420 544 q 429 560 425 554 l 717 968 q 726 978 721 973 q 738 983 731 983 l 806 983 l 466 507 l 820 0 l 750 0 q 734 5 740 0 q 725 17 729 11 l 416 470 q 406 450 413 459 l 102 17 q 90 5 97 11 q 76 0 84 0 l 11 0 l 366 504 "},"P":{"x_min":167,"x_max":768,"ha":824,"o":"m 238 396 l 238 0 l 167 0 l 167 983 l 420 983 q 680 907 592 983 q 768 691 768 831 q 744 572 768 626 q 675 479 720 518 q 565 417 630 439 q 420 396 501 396 l 238 396 m 238 453 l 420 453 q 536 471 485 453 q 623 521 587 489 q 677 596 658 553 q 697 691 697 639 q 627 865 697 804 q 420 927 557 927 l 238 927 l 238 453 "},"%":{"x_min":61,"x_max":1004,"ha":1065,"o":"m 474 746 q 457 640 474 686 q 412 563 440 594 q 346 517 383 533 q 267 502 308 502 q 186 517 224 502 q 120 563 148 533 q 76 640 92 594 q 61 746 61 686 q 76 854 61 808 q 120 931 92 901 q 186 978 148 962 q 267 994 224 994 q 347 978 310 994 q 413 931 385 962 q 457 854 441 901 q 474 746 474 808 m 421 746 q 408 838 421 800 q 375 901 396 876 q 326 937 354 926 q 266 949 298 949 q 207 937 235 949 q 159 901 179 926 q 126 838 138 876 q 114 746 114 800 q 126 655 114 693 q 159 593 138 617 q 207 557 179 568 q 266 546 235 546 q 326 557 298 546 q 375 593 354 568 q 408 655 396 617 q 421 746 421 693 m 846 970 q 856 979 850 976 q 872 983 862 983 l 918 983 l 213 12 q 189 0 204 0 l 142 0 l 846 970 m 1004 232 q 987 126 1004 172 q 942 49 970 80 q 877 3 914 19 q 798 -12 839 -12 q 717 3 755 -12 q 651 49 679 19 q 607 126 623 80 q 592 232 592 172 q 607 340 592 294 q 651 417 623 387 q 717 464 679 448 q 798 480 755 480 q 878 464 841 480 q 944 417 915 448 q 988 340 972 387 q 1004 232 1004 294 m 951 233 q 938 325 951 286 q 906 388 926 363 q 857 424 885 413 q 798 436 829 436 q 738 424 766 436 q 690 388 710 413 q 657 325 669 363 q 645 233 645 286 q 657 141 645 179 q 690 79 669 103 q 738 44 710 55 q 798 33 766 33 q 857 44 829 33 q 906 79 885 55 q 938 141 926 103 q 951 233 951 179 "},"#":{"x_min":59.734375,"x_max":752.84375,"ha":806,"o":"m 525 307 l 460 0 l 431 0 q 416 5 422 0 q 409 22 409 11 q 410 30 409 27 l 470 307 l 263 307 l 203 27 q 191 6 200 12 q 171 0 183 0 l 142 0 l 207 307 l 80 307 q 65 311 70 307 q 59 328 59 316 q 59 334 59 331 q 61 344 59 337 l 63 356 l 214 356 l 271 627 l 95 627 l 100 653 q 130 676 102 676 l 278 676 l 338 956 q 350 976 341 969 q 370 983 359 983 l 400 983 l 334 676 l 541 676 l 607 983 l 636 983 q 657 962 657 983 q 657 953 657 956 l 596 676 l 752 676 l 748 649 q 717 627 745 627 l 589 627 l 532 356 l 688 356 q 709 337 709 356 l 707 307 l 525 307 m 270 356 l 477 356 l 534 627 l 327 627 l 270 356 "},"_":{"x_min":0,"x_max":547.265625,"ha":547,"o":"m 547 -142 l 547 -189 l 0 -189 l 0 -142 l 547 -142 "},"+":{"x_min":75.375,"x_max":727.34375,"ha":806,"o":"m 428 804 l 428 491 l 727 491 l 727 440 l 428 440 l 428 125 l 374 125 l 374 440 l 75 440 l 75 491 l 374 491 l 374 804 l 428 804 "},")":{"x_min":68,"x_max":298,"ha":417,"o":"m 240 437 q 198 736 240 593 q 73 1012 156 879 q 69 1027 69 1020 q 78 1041 69 1037 l 107 1060 q 196 901 159 978 q 255 748 233 824 q 287 595 277 672 q 298 437 298 518 q 287 279 298 356 q 255 127 277 203 q 196 -25 233 51 q 106 -184 159 -102 l 77 -165 q 68 -150 68 -161 q 73 -136 68 -143 q 198 139 156 -3 q 240 437 240 282 "},"'":{"x_min":125,"x_max":183,"ha":308,"o":"m 183 983 l 183 780 l 176 673 q 170 655 175 662 q 153 648 165 648 q 138 655 143 648 q 131 673 132 662 l 125 780 l 125 983 l 183 983 "},"}":{"x_min":72.984375,"x_max":372.640625,"ha":417,"o":"m 265 309 q 271 234 265 271 q 285 162 277 198 q 299 90 293 126 q 306 14 306 53 q 292 -63 306 -27 q 254 -126 279 -99 q 193 -168 229 -153 q 111 -183 157 -183 l 72 -183 l 72 -153 q 78 -142 72 -146 q 90 -138 84 -138 l 113 -138 q 167 -127 143 -138 q 210 -97 192 -117 q 237 -50 227 -78 q 248 11 248 -22 q 241 87 248 50 q 228 161 235 125 q 214 235 220 198 q 208 308 208 271 q 216 355 208 334 q 238 392 224 376 q 271 419 253 408 q 310 434 289 430 q 271 450 289 439 q 238 476 253 461 q 216 514 224 492 q 208 561 208 536 q 214 634 208 598 q 228 707 220 671 q 241 781 235 744 q 248 858 248 819 q 237 920 248 892 q 210 967 227 948 q 167 997 192 987 q 113 1008 143 1008 l 90 1008 q 78 1012 84 1008 q 72 1023 72 1016 l 72 1053 l 111 1053 q 193 1038 157 1053 q 254 996 229 1023 q 292 933 279 969 q 306 855 306 897 q 299 779 306 816 q 285 707 293 743 q 271 635 277 671 q 265 560 265 599 q 272 518 265 537 q 294 485 280 499 q 328 463 308 471 q 372 456 348 456 l 372 414 q 328 406 348 414 q 294 384 308 398 q 272 351 280 370 q 265 309 265 332 "},"a":{"x_min":74,"x_max":580,"ha":676,"o":"m 553 0 q 527 19 532 0 l 518 107 q 461 57 489 79 q 402 20 433 35 q 336 -3 372 4 q 258 -11 301 -11 q 190 0 223 -11 q 130 31 156 9 q 89 86 105 52 q 74 167 74 120 q 99 248 74 211 q 177 314 124 286 q 313 358 230 341 q 515 378 397 375 l 515 450 q 473 598 515 546 q 350 650 432 650 q 265 636 300 650 q 206 605 230 622 q 166 574 182 588 q 141 561 151 561 q 120 573 127 561 l 108 593 q 222 675 162 647 q 358 703 282 703 q 455 685 413 703 q 524 634 497 667 q 566 554 552 601 q 580 450 580 507 l 580 0 l 553 0 m 275 37 q 349 45 315 37 q 411 70 383 54 q 465 107 440 85 q 515 153 490 128 l 515 334 q 345 319 416 331 q 227 286 274 306 q 159 236 181 265 q 138 170 138 207 q 149 110 138 135 q 179 68 160 85 q 223 44 198 52 q 275 37 248 37 "},"T":{"x_min":23.75,"x_max":787.171875,"ha":812,"o":"m 787 983 l 787 923 l 442 923 l 442 0 l 371 0 l 371 923 l 23 923 l 23 983 l 787 983 "},"=":{"x_min":115,"x_max":689,"ha":805,"o":"m 115 386 l 689 386 l 689 335 l 115 335 l 115 386 m 115 603 l 689 603 l 689 552 l 115 552 l 115 603 "},"N":{"x_min":146,"x_max":904,"ha":1050,"o":"m 180 983 q 196 980 190 983 q 208 969 201 978 l 843 118 q 841 158 841 139 l 841 983 l 904 983 l 904 0 l 869 0 q 844 13 853 0 l 206 866 q 208 827 208 845 l 208 0 l 146 0 l 146 983 l 180 983 l 180 983 "},"2":{"x_min":89.90625,"x_max":723.609375,"ha":806,"o":"m 418 994 q 525 977 474 994 q 615 928 576 961 q 677 845 654 895 q 700 729 700 796 q 683 626 700 673 q 637 535 666 578 q 569 450 608 491 q 488 365 530 408 l 180 51 q 227 60 203 57 q 275 63 251 63 l 699 63 q 717 56 710 63 q 723 39 723 49 l 723 0 l 89 0 l 89 23 q 93 39 89 31 q 103 52 97 47 l 438 392 q 515 474 480 434 q 577 554 551 514 q 618 637 603 594 q 633 727 633 679 q 614 821 633 781 q 566 887 596 861 q 497 925 536 912 q 414 938 457 938 q 329 923 368 938 q 259 884 289 909 q 209 823 229 858 q 182 747 189 788 q 154 722 175 722 q 151 723 153 722 q 147 723 148 723 l 114 728 q 148 841 122 792 q 214 924 174 890 q 305 976 253 958 q 418 994 357 994 "},"j":{"x_min":-34.671875,"x_max":227,"ha":327,"o":"m 198 691 l 198 -87 q 187 -154 198 -124 q 156 -207 177 -185 q 105 -243 136 -230 q 32 -256 74 -256 q -3 -252 12 -256 q -34 -241 -19 -249 l -31 -207 q -21 -199 -30 -199 q -5 -202 -15 -199 q 21 -205 4 -205 q 104 -174 77 -205 q 132 -87 132 -143 l 132 691 l 198 691 m 227 929 q 221 906 227 916 q 208 887 216 895 q 188 873 199 878 q 165 869 177 869 q 141 873 152 869 q 122 887 130 878 q 108 906 113 895 q 104 929 104 916 q 108 953 104 941 q 122 972 113 964 q 141 986 130 981 q 165 991 152 991 q 188 986 177 991 q 208 972 199 981 q 221 953 216 964 q 227 929 227 941 "},"Z":{"x_min":79.875,"x_max":807.703125,"ha":879,"o":"m 807 983 l 807 958 q 797 930 807 944 l 174 59 l 802 59 l 802 0 l 79 0 l 79 25 q 88 50 79 38 l 713 924 l 97 924 l 97 983 l 807 983 "},"u":{"x_min":95,"x_max":638,"ha":751,"o":"m 161 691 l 161 249 q 205 97 161 152 q 341 42 250 42 q 466 76 408 42 q 572 171 525 110 l 572 691 l 638 691 l 638 0 l 601 0 q 582 18 582 0 l 575 120 q 464 25 527 61 q 324 -11 401 -11 q 224 7 267 -11 q 152 59 181 25 q 109 141 124 93 q 95 249 95 188 l 95 691 l 161 691 "},"1":{"x_min":170.453125,"x_max":720.59375,"ha":806,"o":"m 214 51 l 440 51 l 440 848 q 442 898 440 872 l 225 706 q 208 700 218 700 q 190 708 196 700 l 170 736 l 454 987 l 506 987 l 506 51 l 720 51 l 720 0 l 214 0 l 214 51 "},"k":{"x_min":120,"x_max":649.921875,"ha":683,"o":"m 186 1011 l 186 395 l 217 395 q 236 397 227 395 q 255 410 245 400 l 532 673 q 548 686 540 681 q 568 691 556 691 l 627 691 l 322 401 q 308 388 315 394 q 295 378 302 382 q 313 365 306 372 q 329 348 321 357 l 649 0 l 592 0 q 574 3 582 0 q 559 15 567 7 l 269 327 q 247 344 257 339 q 217 349 238 349 l 186 349 l 186 0 l 120 0 l 120 1011 l 186 1011 "},"€":{"x_min":20.96875,"x_max":788.15625,"ha":806,"o":"m 21 599 l 135 599 q 177 763 146 690 q 256 887 208 836 q 367 964 304 937 q 507 992 430 992 q 589 983 551 992 q 659 960 627 975 q 720 922 691 945 q 773 870 748 899 l 752 845 q 746 839 749 842 q 737 837 742 837 q 723 844 731 837 q 704 862 716 852 q 675 885 692 872 q 635 909 658 898 q 581 926 612 919 q 509 934 550 934 q 395 912 447 934 q 304 847 343 890 q 239 743 264 805 q 203 599 213 680 l 621 599 l 621 578 q 615 564 621 570 q 598 559 610 559 l 199 559 q 197 491 197 526 q 197 463 197 477 q 198 436 197 449 l 557 436 l 557 414 q 552 400 557 406 q 536 394 546 394 l 202 394 q 236 243 211 308 q 299 134 261 178 q 390 69 338 91 q 505 47 443 47 q 581 55 548 47 q 639 76 614 63 q 682 104 664 89 q 713 132 700 119 q 734 153 725 144 q 749 161 743 161 q 762 155 756 161 l 788 131 q 733 73 763 99 q 669 28 704 47 q 592 0 633 10 q 502 -10 550 -10 q 359 16 423 -10 q 248 95 295 43 q 172 222 202 147 q 134 394 143 297 l 20 394 l 20 436 l 130 436 q 129 463 129 449 q 129 491 129 477 q 131 559 129 525 l 21 559 l 21 599 "},"<":{"x_min":111,"x_max":632,"ha":806,"o":"m 111 480 l 632 748 l 632 702 q 627 689 632 695 q 613 678 623 684 l 229 484 q 179 466 206 472 q 229 448 208 459 l 613 253 q 627 242 623 247 q 632 229 632 236 l 632 184 l 111 452 l 111 480 "},"t":{"x_min":36.3125,"x_max":452.34375,"ha":495,"o":"m 300 -11 q 191 27 230 -11 q 153 148 153 66 l 153 621 l 53 621 q 41 625 46 621 q 36 636 36 629 l 36 662 l 154 670 l 170 917 q 175 929 171 924 q 187 933 180 933 l 219 933 l 219 670 l 436 670 l 436 621 l 219 621 l 219 151 q 226 102 219 122 q 246 68 233 81 q 276 49 259 55 q 314 43 294 43 q 357 50 339 43 q 388 66 375 57 q 409 82 401 74 q 423 89 418 89 q 434 82 428 89 l 452 53 q 385 6 425 24 q 300 -11 344 -11 "},"W":{"x_min":11.8125,"x_max":1358.4375,"ha":1371,"o":"m 11 983 l 70 983 q 96 964 90 983 l 344 156 q 351 126 348 142 q 358 93 354 110 q 365 126 361 110 q 373 156 368 142 l 651 964 q 661 977 654 971 q 677 983 668 983 l 697 983 q 713 977 707 983 q 722 964 719 972 l 1000 156 q 1009 127 1005 142 q 1016 94 1013 112 q 1023 127 1020 111 q 1029 156 1025 142 l 1277 964 q 1287 977 1279 971 q 1304 983 1294 983 l 1358 983 l 1049 0 l 985 0 l 695 852 q 685 888 689 869 q 675 852 681 869 l 384 0 l 321 0 l 11 983 "},"v":{"x_min":17.359375,"x_max":659.078125,"ha":676,"o":"m 367 0 l 309 0 l 17 691 l 69 691 q 85 685 79 691 q 93 674 90 680 l 321 129 q 331 98 328 113 q 338 69 335 84 q 346 98 342 84 q 356 129 350 113 l 585 674 q 594 686 588 681 q 609 691 600 691 l 659 691 l 367 0 "},">":{"x_min":174,"x_max":695,"ha":805,"o":"m 174 184 l 174 229 q 178 242 174 236 q 192 253 182 248 l 576 448 q 626 466 598 459 q 600 473 612 469 q 576 484 588 478 l 192 678 q 174 702 174 688 l 174 748 l 695 480 l 695 452 l 174 184 "},"s":{"x_min":62.03125,"x_max":524,"ha":597,"o":"m 493 604 q 478 594 488 594 q 458 603 470 594 q 426 622 446 612 q 377 642 406 633 q 307 651 349 651 q 238 640 269 651 q 186 611 208 629 q 152 569 164 593 q 140 519 140 546 q 156 465 140 487 q 200 429 173 444 q 261 403 227 414 q 332 380 295 392 q 402 356 368 369 q 463 322 436 342 q 507 273 490 302 q 524 202 524 244 q 507 118 524 157 q 460 50 491 79 q 384 5 429 22 q 281 -11 339 -11 q 156 12 209 -11 q 62 73 103 35 l 78 97 q 85 105 81 102 q 97 108 89 108 q 119 97 106 108 q 153 73 132 85 q 206 49 175 60 q 284 38 238 38 q 361 50 328 38 q 416 83 394 62 q 450 131 439 103 q 462 191 462 160 q 445 248 462 225 q 401 287 428 271 q 340 314 374 303 q 269 336 305 325 q 198 361 233 348 q 137 394 164 374 q 93 443 110 414 q 77 515 77 472 q 93 586 77 552 q 138 645 109 620 q 210 686 168 671 q 305 702 253 702 q 418 683 369 702 q 508 627 467 665 l 493 604 "},"B":{"x_min":146,"x_max":796,"ha":890,"o":"m 146 0 l 146 983 l 428 983 q 574 966 512 983 q 676 917 635 949 q 736 838 716 885 q 756 732 756 791 q 742 657 756 694 q 703 591 728 621 q 640 538 677 560 q 555 503 603 515 q 733 426 671 486 q 796 268 796 366 q 773 156 796 206 q 709 71 751 106 q 605 18 666 36 q 464 0 543 0 l 146 0 m 217 471 l 217 57 l 463 57 q 659 112 593 57 q 725 270 725 168 q 707 353 725 316 q 656 417 689 391 q 574 457 622 443 q 464 471 525 471 l 217 471 m 217 523 l 430 523 q 546 540 498 523 q 625 586 594 557 q 671 650 656 614 q 686 725 686 687 q 623 875 686 824 q 428 927 560 927 l 217 927 l 217 523 "},"?":{"x_min":22.921875,"x_max":488.234375,"ha":515,"o":"m 22 897 q 65 933 41 916 q 117 964 88 950 q 178 985 145 977 q 250 993 211 993 q 342 979 299 993 q 417 937 385 964 q 469 871 450 910 q 488 783 488 832 q 471 692 488 730 q 430 625 455 654 q 376 574 405 596 q 321 533 347 552 q 278 495 296 514 q 259 452 261 475 l 251 338 l 206 338 l 202 456 l 202 460 q 219 510 202 488 q 260 552 236 531 q 314 593 285 572 q 367 639 343 613 q 409 700 392 666 q 425 780 425 734 q 411 847 425 818 q 371 897 396 877 q 313 928 346 918 q 245 939 281 939 q 166 927 200 939 q 109 900 132 915 q 73 873 86 885 q 55 861 60 861 q 40 869 45 861 l 22 897 m 163 53 q 167 78 163 66 q 181 98 172 90 q 201 112 189 107 q 226 118 212 118 q 251 112 239 118 q 271 98 263 107 q 285 78 280 90 q 291 53 291 66 q 285 28 291 39 q 271 8 280 16 q 251 -5 263 0 q 226 -10 239 -10 q 181 8 199 -10 q 163 53 163 26 "},"H":{"x_min":146,"x_max":904,"ha":1050,"o":"m 904 0 l 832 0 l 832 471 l 218 471 l 218 0 l 146 0 l 146 983 l 218 983 l 218 524 l 832 524 l 832 983 l 904 983 l 904 0 "},"c":{"x_min":61,"x_max":594,"ha":632,"o":"m 566 598 q 560 592 563 595 q 551 590 557 590 q 532 599 544 590 q 500 620 520 609 q 449 640 480 631 q 376 650 419 650 q 270 628 316 650 q 192 568 224 607 q 144 472 161 528 q 128 345 128 415 q 145 216 128 272 q 193 121 162 160 q 268 63 224 83 q 367 43 313 43 q 451 54 417 43 q 506 80 484 66 q 541 106 528 94 q 562 118 554 118 q 575 111 571 118 l 594 88 q 553 49 578 68 q 498 18 529 31 q 432 -1 468 5 q 357 -9 396 -9 q 237 14 291 -9 q 143 84 182 38 q 82 195 104 129 q 61 345 61 261 q 81 490 61 424 q 142 602 102 555 q 240 675 182 649 q 373 702 298 702 q 492 680 440 702 q 584 622 545 659 l 566 598 "},"&":{"x_min":73.609375,"x_max":947.296875,"ha":961,"o":"m 457 994 q 545 978 504 994 q 618 934 587 962 q 667 872 649 907 q 687 797 686 836 q 670 793 677 795 q 645 789 654 789 q 634 793 639 789 q 627 805 629 798 q 611 847 622 823 q 579 891 599 871 q 528 927 559 912 q 457 941 498 941 q 381 929 416 941 q 323 892 347 916 q 285 837 299 869 q 272 767 272 805 q 301 658 272 710 q 391 546 330 606 l 701 241 q 751 345 732 291 q 775 450 769 399 q 780 464 776 459 q 793 469 784 469 l 831 469 q 806 335 829 404 q 740 202 783 266 l 947 0 l 885 0 q 865 2 872 0 q 846 15 857 5 l 704 155 q 635 88 672 118 q 554 35 597 57 q 460 1 510 14 q 356 -11 411 -11 q 253 6 304 -11 q 162 57 202 23 q 98 140 122 91 q 73 251 73 189 q 91 347 73 301 q 140 430 109 392 q 215 498 172 468 q 308 546 258 527 q 234 654 259 602 q 209 766 209 707 q 227 856 209 815 q 277 928 245 898 q 355 976 310 959 q 457 994 401 994 m 140 255 q 161 162 140 202 q 214 96 181 122 q 287 56 247 69 q 366 43 327 43 q 458 54 414 43 q 539 85 501 65 q 608 131 577 104 q 666 191 640 159 l 347 504 q 340 512 343 508 q 257 466 294 493 q 194 405 220 438 q 154 334 168 372 q 140 255 140 296 "},"I":{"x_min":171,"x_max":243,"ha":415,"o":"m 243 0 l 171 0 l 171 983 l 243 983 l 243 0 "},"G":{"x_min":86,"x_max":936,"ha":1040,"o":"m 568 47 q 660 52 618 47 q 737 67 702 57 q 806 93 773 78 q 871 126 838 108 l 871 391 l 682 391 q 669 395 674 391 q 664 407 664 400 l 664 446 l 936 446 l 936 96 q 859 50 899 70 q 774 17 819 30 q 677 -3 729 3 q 563 -11 625 -11 q 369 24 457 -11 q 218 126 281 60 q 120 284 155 191 q 86 491 86 377 q 120 698 86 605 q 219 856 155 791 q 374 958 283 922 q 579 994 465 994 q 683 986 635 994 q 771 963 730 978 q 848 927 812 948 q 916 876 883 905 l 897 846 q 880 835 891 835 q 868 838 873 835 q 837 857 857 842 q 784 889 818 873 q 699 919 750 906 q 577 933 649 933 q 404 902 481 933 q 272 814 327 871 q 188 676 218 758 q 159 492 159 594 q 188 305 159 387 q 272 165 218 222 q 401 77 326 108 q 568 47 477 47 "},"`":{"x_min":60,"x_max":274,"ha":406,"o":"m 123 994 q 148 989 140 994 q 164 971 157 984 l 274 806 l 236 806 q 222 808 228 806 q 210 818 216 811 l 60 994 l 123 994 "},"(":{"x_min":118,"x_max":348,"ha":416,"o":"m 176 437 q 217 139 176 282 q 343 -136 259 -3 q 348 -150 348 -143 q 338 -165 348 -161 l 309 -184 q 219 -25 255 -102 q 160 127 182 51 q 128 279 138 203 q 118 437 118 356 q 128 595 118 518 q 160 748 138 672 q 219 901 182 824 q 309 1060 255 978 l 338 1041 q 347 1027 347 1037 q 342 1012 347 1020 q 217 736 259 879 q 176 437 176 593 "},"U":{"x_min":137,"x_max":881,"ha":1019,"o":"m 509 51 q 635 75 579 51 q 730 144 691 100 q 789 247 769 187 q 810 375 810 306 l 810 983 l 881 983 l 881 375 q 855 223 881 293 q 781 100 829 152 q 664 17 733 47 q 509 -12 595 -12 q 353 17 422 -12 q 236 100 284 47 q 162 223 188 152 q 137 375 137 293 l 137 983 l 209 983 l 209 376 q 229 247 209 307 q 288 144 249 188 q 382 76 326 101 q 509 51 438 51 "},"◊":{"x_min":101,"x_max":705,"ha":806,"o":"m 101 471 l 380 1049 l 425 1049 l 705 471 l 425 -107 l 380 -107 l 101 471 m 157 470 l 388 -4 q 397 -25 393 -15 q 402 -45 400 -35 q 408 -25 405 -35 q 416 -4 411 -15 l 648 470 l 416 946 q 408 967 411 957 q 402 986 405 977 q 396 967 399 977 q 388 946 392 957 l 157 470 "},"F":{"x_min":146,"x_max":735.40625,"ha":795,"o":"m 735 983 l 735 924 l 218 924 l 218 510 l 665 510 l 665 451 l 218 451 l 218 0 l 146 0 l 146 983 l 735 983 "},"r":{"x_min":113,"x_max":509.578125,"ha":551,"o":"m 113 0 l 113 691 l 147 691 q 165 686 159 691 q 171 669 170 681 l 176 523 q 265 655 209 607 q 401 703 320 703 q 459 696 433 703 q 509 677 485 689 l 500 631 q 486 619 498 619 q 474 622 482 619 q 455 628 467 625 q 427 635 444 632 q 389 638 410 638 q 260 589 310 638 q 179 449 210 540 l 179 0 l 113 0 "},":":{"x_min":101,"x_max":229,"ha":330,"o":"m 101 53 q 105 78 101 66 q 119 98 110 90 q 139 112 127 107 q 164 118 150 118 q 189 112 177 118 q 209 98 201 107 q 223 78 218 90 q 229 53 229 66 q 223 28 229 39 q 209 8 218 16 q 189 -5 201 0 q 164 -10 177 -10 q 119 8 137 -10 q 101 53 101 26 m 101 606 q 105 631 101 619 q 119 651 110 643 q 139 665 127 660 q 164 671 150 671 q 189 665 177 671 q 209 651 201 660 q 223 631 218 643 q 229 606 229 619 q 223 581 229 592 q 209 561 218 569 q 189 547 201 552 q 164 543 177 543 q 119 561 137 543 q 101 606 101 579 "},"x":{"x_min":24.3125,"x_max":615.328125,"ha":640,"o":"m 274 353 l 34 691 l 97 691 q 111 686 106 691 q 119 677 115 682 l 322 384 q 334 409 325 395 l 523 676 q 532 686 527 682 q 544 691 537 691 l 605 691 l 363 356 l 615 0 l 552 0 q 536 5 542 0 q 527 17 531 11 l 318 322 q 307 299 314 309 l 106 15 q 96 4 101 9 q 83 0 90 0 l 24 0 l 274 353 "},"*":{"x_min":85.046875,"x_max":467.65625,"ha":556,"o":"m 258 623 l 258 770 q 259 791 258 782 q 267 812 261 800 q 252 796 259 802 q 234 784 244 791 l 103 709 l 86 739 l 217 816 q 235 824 226 821 q 257 829 244 827 q 235 834 244 831 q 217 843 226 838 l 85 920 l 103 951 l 234 875 q 252 861 245 868 q 268 843 258 855 q 260 866 262 856 q 258 888 258 876 l 258 1037 l 294 1037 l 294 889 q 292 866 294 876 q 285 843 290 856 q 300 862 293 855 q 318 875 307 868 l 448 950 l 466 919 l 336 843 q 316 834 325 837 q 296 829 307 830 q 317 824 308 827 q 336 816 325 821 l 467 739 l 450 708 l 318 784 q 300 796 307 791 q 285 814 294 802 q 291 792 289 801 q 294 771 294 783 l 294 623 l 258 623 "},"V":{"x_min":10.421875,"x_max":884.796875,"ha":895,"o":"m 10 983 l 66 983 q 82 977 76 983 q 92 964 88 972 l 427 148 q 448 80 440 116 q 468 148 456 118 l 802 964 q 812 977 806 971 q 829 983 819 983 l 884 983 l 479 0 l 416 0 l 10 983 "},"h":{"x_min":113,"x_max":655,"ha":751,"o":"m 113 0 l 113 1010 l 179 1010 l 179 572 q 288 666 226 631 q 425 702 349 702 q 525 683 482 702 q 597 631 569 665 q 640 549 625 597 q 655 441 655 502 l 655 0 l 589 0 l 589 441 q 544 593 589 538 q 408 649 500 649 q 282 613 341 649 q 179 517 224 578 l 179 0 l 113 0 "},"0":{"x_min":51,"x_max":755,"ha":806,"o":"m 755 492 q 727 268 755 362 q 651 112 699 174 q 539 20 603 50 q 402 -10 475 -10 q 265 20 329 -10 q 153 112 201 50 q 78 268 105 174 q 51 492 51 362 q 78 715 51 621 q 153 871 105 810 q 265 963 201 933 q 402 994 329 994 q 539 963 475 994 q 651 871 603 933 q 727 715 699 810 q 755 492 755 621 m 686 491 q 663 695 686 611 q 601 834 640 780 q 511 913 563 888 q 402 938 459 938 q 294 913 345 938 q 203 834 242 888 q 141 695 164 780 q 119 491 119 611 q 141 287 119 371 q 203 149 164 202 q 294 70 242 95 q 402 46 345 46 q 511 70 459 46 q 601 149 563 95 q 663 287 640 202 q 686 491 686 371 "},".":{"x_min":73,"x_max":201,"ha":274,"o":"m 73 53 q 77 78 73 66 q 91 98 82 90 q 111 112 99 107 q 136 118 122 118 q 161 112 149 118 q 181 98 173 107 q 195 78 190 90 q 201 53 201 66 q 195 28 201 39 q 181 8 190 16 q 161 -5 173 0 q 136 -10 149 -10 q 91 8 109 -10 q 73 53 73 26 "},"@":{"x_min":75,"x_max":1069,"ha":1141,"o":"m 810 130 q 718 162 749 130 q 686 255 687 194 q 598 161 647 190 q 492 133 549 133 q 424 146 453 133 q 377 183 396 160 q 349 239 358 207 q 340 308 340 271 q 362 426 340 367 q 428 533 385 486 q 535 611 472 581 q 679 641 598 641 q 748 634 715 641 q 806 616 780 628 l 742 375 q 730 318 734 343 q 727 272 727 292 q 734 222 727 242 q 755 192 742 203 q 784 177 768 181 q 819 174 801 174 q 895 194 859 174 q 959 254 931 215 q 1003 347 987 292 q 1020 470 1020 402 q 986 649 1020 573 q 894 777 952 726 q 759 853 836 828 q 595 878 682 878 q 415 841 500 878 q 265 738 330 804 q 163 581 201 672 q 126 380 126 489 q 165 164 126 258 q 271 8 204 71 q 429 -86 339 -54 q 620 -119 519 -119 q 808 -95 723 -119 q 962 -26 893 -71 q 974 -23 967 -23 q 988 -32 984 -23 l 998 -58 q 827 -137 921 -109 q 620 -166 734 -166 q 406 -129 505 -166 q 233 -23 307 -93 q 117 148 160 46 q 75 380 75 250 q 115 596 75 496 q 227 768 156 695 q 393 882 298 841 q 595 924 487 924 q 773 895 688 924 q 924 809 859 866 q 1029 666 990 751 q 1069 470 1069 582 q 1048 332 1069 394 q 993 224 1028 269 q 911 155 958 180 q 810 130 863 130 m 504 179 q 556 187 529 179 q 607 217 582 195 q 653 276 632 239 q 689 371 675 313 l 745 587 q 711 594 728 592 q 669 597 693 597 q 556 571 607 597 q 469 505 505 546 q 413 413 433 464 q 394 309 394 361 q 400 257 394 281 q 421 216 407 233 q 456 189 435 199 q 504 179 476 179 "},"f":{"x_min":20.625,"x_max":432.1875,"ha":447,"o":"m 138 0 l 138 618 l 40 624 q 20 641 20 625 l 20 669 l 138 669 l 138 756 q 153 860 138 815 q 196 935 168 905 q 263 980 224 965 q 350 995 303 995 q 393 991 371 995 q 432 980 415 987 l 430 948 q 416 938 429 938 q 394 940 408 938 q 359 943 380 943 q 296 932 325 943 q 246 900 267 922 q 214 842 225 878 q 203 754 203 806 l 203 669 l 426 669 l 426 620 l 204 620 l 204 0 l 138 0 "},";":{"x_min":101,"x_max":229,"ha":330,"o":"m 101 606 q 105 631 101 619 q 119 651 110 643 q 139 665 127 660 q 164 671 150 671 q 189 665 177 671 q 209 651 201 660 q 223 631 218 643 q 229 606 229 619 q 223 581 229 592 q 209 561 218 569 q 189 547 201 552 q 164 543 177 543 q 119 561 137 543 q 101 606 101 579 m 104 58 q 120 100 104 83 q 164 118 137 118 q 210 97 194 118 q 227 43 227 76 q 219 -14 227 15 q 198 -72 212 -43 q 165 -127 184 -100 q 122 -175 146 -153 l 112 -165 q 107 -153 107 -159 q 109 -146 107 -150 q 113 -140 111 -143 q 131 -120 120 -133 q 152 -88 141 -106 q 171 -47 163 -69 q 183 0 180 -25 q 173 -2 178 -1 q 162 -3 168 -3 q 120 14 136 -3 q 104 58 104 31 "},"i":{"x_min":104,"x_max":227,"ha":330,"o":"m 198 691 l 198 0 l 132 0 l 132 691 l 198 691 m 227 929 q 221 906 227 916 q 208 887 216 895 q 188 873 199 878 q 165 869 177 869 q 141 873 152 869 q 122 887 130 878 q 108 906 113 895 q 104 929 104 916 q 108 953 104 941 q 122 972 113 964 q 141 986 130 981 q 165 991 152 991 q 188 986 177 991 q 208 972 199 981 q 221 953 216 964 q 227 929 227 941 "},"6":{"x_min":94,"x_max":727,"ha":805,"o":"m 435 587 q 552 566 499 587 q 644 508 606 546 q 705 416 683 470 q 727 296 727 362 q 703 173 727 229 q 636 75 679 116 q 533 11 593 34 q 402 -11 474 -11 q 276 11 333 -11 q 179 75 219 33 q 116 176 138 116 q 94 312 94 236 q 123 442 94 370 q 219 605 152 515 l 487 967 q 522 983 499 983 l 581 983 l 287 600 q 248 546 266 571 q 215 497 230 521 q 312 563 256 539 q 435 587 369 587 m 159 296 q 176 195 159 241 q 224 114 193 148 q 300 62 255 81 q 402 43 345 43 q 509 62 461 43 q 591 114 557 81 q 643 192 625 147 q 661 291 661 238 q 643 393 661 347 q 593 470 625 438 q 516 519 561 502 q 418 536 472 536 q 308 514 356 536 q 227 460 260 493 q 176 383 193 426 q 159 296 159 340 "},"A":{"x_min":10.421875,"x_max":885.484375,"ha":895,"o":"m 885 0 l 830 0 q 814 5 820 0 q 804 18 808 10 l 688 304 l 206 304 l 90 18 q 81 5 88 11 q 64 0 74 0 l 10 0 l 412 983 l 483 983 l 885 0 m 227 357 l 668 357 l 467 853 q 457 880 462 865 q 447 911 452 895 q 438 880 443 895 q 428 852 433 865 l 227 357 "},"π":{"x_min":32.046875,"x_max":791.140625,"ha":815,"o":"m 791 691 l 791 665 q 784 647 791 655 q 765 640 777 640 l 646 640 l 646 0 l 580 0 l 580 640 l 255 640 l 255 149 q 217 33 255 73 q 106 -7 179 -7 q 66 -3 84 -7 q 32 8 48 0 l 35 35 q 48 45 38 45 q 63 43 54 45 q 89 42 73 42 q 189 150 189 42 l 189 640 l 48 640 l 48 664 q 56 682 48 673 q 77 691 63 691 l 791 691 "},"n":{"x_min":113,"x_max":655,"ha":751,"o":"m 113 0 l 113 691 l 149 691 q 170 673 167 691 l 176 569 q 286 665 223 629 q 425 702 348 702 q 525 683 482 702 q 597 631 569 665 q 640 549 625 597 q 655 441 655 502 l 655 0 l 589 0 l 589 441 q 544 593 589 538 q 408 649 500 649 q 282 613 341 649 q 179 517 224 578 l 179 0 l 113 0 "},"O":{"x_min":85,"x_max":1023,"ha":1108,"o":"m 1023 492 q 988 285 1023 378 q 892 127 954 192 q 744 25 831 61 q 553 -10 658 -10 q 363 25 450 -10 q 215 127 277 61 q 119 285 153 192 q 85 492 85 378 q 119 697 85 605 q 215 856 153 790 q 363 957 277 921 q 553 994 450 994 q 744 958 658 994 q 892 856 831 922 q 988 697 954 790 q 1023 492 1023 605 m 949 492 q 920 676 949 594 q 840 815 892 758 q 715 902 788 872 q 553 933 642 933 q 393 902 465 933 q 268 815 320 872 q 186 676 215 758 q 158 492 158 594 q 186 307 158 388 q 268 168 215 225 q 393 81 320 111 q 553 52 465 52 q 715 81 642 52 q 840 168 788 111 q 920 307 892 225 q 949 492 949 388 "},"3":{"x_min":90.125,"x_max":727,"ha":806,"o":"m 425 994 q 531 978 481 994 q 619 931 581 962 q 679 853 657 900 q 702 746 702 807 q 687 659 702 698 q 646 591 672 621 q 584 542 620 562 q 507 512 549 523 q 671 428 615 492 q 727 270 727 365 q 702 158 727 209 q 636 68 678 106 q 535 10 593 31 q 410 -11 478 -11 q 271 11 326 -11 q 179 70 215 33 q 122 150 142 106 q 90 240 102 195 l 116 251 q 132 254 124 254 q 147 251 140 254 q 157 238 154 247 l 162 224 q 174 193 166 211 q 193 155 181 174 q 224 115 206 135 q 268 80 242 95 q 329 54 294 64 q 410 45 364 45 q 519 65 472 45 q 598 119 566 86 q 645 191 629 151 q 661 268 661 231 q 646 353 661 314 q 598 420 631 391 q 510 464 565 448 q 376 481 456 481 l 376 529 q 488 546 440 530 q 570 588 537 561 q 619 653 602 615 q 636 735 636 690 q 618 826 636 788 q 572 889 601 864 q 504 926 542 914 q 422 938 465 938 q 337 924 376 938 q 268 885 298 910 q 218 825 238 860 q 188 747 198 790 q 163 722 183 722 q 155 723 158 722 l 121 728 q 156 841 130 792 q 221 924 181 890 q 313 976 260 958 q 425 994 365 994 "},"]":{"x_min":74.09375,"x_max":294,"ha":417,"o":"m 74 -158 q 79 -143 74 -149 q 94 -138 85 -138 l 238 -138 l 238 1008 l 94 1008 q 79 1013 85 1008 q 74 1028 74 1019 l 74 1053 l 294 1053 l 294 -183 l 74 -183 l 74 -158 "},"m":{"x_min":113,"x_max":1009,"ha":1104,"o":"m 113 0 l 113 691 l 149 691 q 170 673 167 691 l 176 573 q 219 625 196 602 q 268 666 242 649 q 323 692 294 683 q 385 702 353 702 q 506 657 461 702 q 567 535 551 613 q 602 609 580 578 q 654 661 625 640 q 717 691 683 681 q 788 702 751 702 q 880 684 839 702 q 949 634 921 667 q 993 552 978 601 q 1009 441 1009 504 l 1009 0 l 943 0 l 943 441 q 899 595 943 542 q 774 649 855 649 q 705 635 738 649 q 647 596 672 622 q 606 531 621 570 q 592 441 592 492 l 592 0 l 526 0 l 526 441 q 485 595 526 542 q 368 649 445 649 q 264 615 312 649 q 179 521 216 581 l 179 0 l 113 0 "},"9":{"x_min":119,"x_max":728,"ha":805,"o":"m 397 418 q 286 437 337 418 q 197 494 234 457 q 139 583 160 531 q 119 698 119 634 q 142 815 119 762 q 207 909 165 869 q 306 971 248 948 q 431 994 363 994 q 551 971 496 994 q 645 908 605 949 q 706 811 684 868 q 728 685 728 755 q 720 612 728 647 q 696 543 712 577 q 658 472 680 508 q 607 393 636 435 l 350 15 q 316 0 339 0 l 256 0 l 546 405 q 585 460 567 434 q 617 511 603 486 q 520 442 577 466 q 397 418 462 418 m 664 697 q 647 795 664 751 q 598 871 629 840 q 524 921 567 903 q 431 938 481 938 q 331 921 377 938 q 253 872 286 904 q 203 798 221 841 q 185 702 185 754 q 202 605 185 648 q 248 531 218 561 q 321 485 279 501 q 416 469 364 469 q 521 489 475 469 q 600 542 568 509 q 648 615 632 575 q 664 697 664 656 "},"l":{"x_min":132,"x_max":198,"ha":330,"o":"m 198 1010 l 198 0 l 132 0 l 132 1010 l 198 1010 "},"8":{"x_min":83,"x_max":722,"ha":805,"o":"m 402 -11 q 272 7 331 -11 q 172 61 214 26 q 106 147 130 97 q 83 259 83 197 q 98 356 83 314 q 142 430 114 398 q 210 482 171 461 q 296 513 249 502 q 220 547 253 525 q 164 598 187 568 q 130 665 142 628 q 118 743 118 701 q 138 841 118 795 q 194 921 158 887 q 284 974 231 955 q 402 994 336 994 q 520 974 467 994 q 609 921 572 955 q 666 841 646 887 q 686 743 686 795 q 674 665 686 701 q 640 598 662 628 q 583 547 617 568 q 507 513 550 525 q 593 482 554 502 q 661 430 633 461 q 706 356 690 398 q 722 259 722 314 q 698 147 722 197 q 632 61 674 97 q 532 7 590 26 q 402 -11 473 -11 m 402 41 q 505 57 459 41 q 584 101 551 72 q 636 170 618 130 q 654 260 654 211 q 630 368 654 325 q 570 436 607 411 q 488 473 533 462 q 402 484 444 484 q 316 473 361 484 q 235 436 272 462 q 175 368 198 411 q 151 260 151 325 q 169 170 151 211 q 220 101 187 130 q 300 57 253 72 q 402 41 346 41 m 402 537 q 500 554 459 537 q 568 600 541 571 q 608 666 595 629 q 621 742 621 702 q 606 821 621 784 q 564 884 592 857 q 495 927 536 911 q 402 942 454 942 q 309 927 350 942 q 240 884 268 911 q 197 821 212 857 q 183 742 183 784 q 196 666 183 702 q 236 600 209 629 q 304 554 263 571 q 402 537 345 537 "},"p":{"x_min":113,"x_max":690,"ha":743,"o":"m 113 -244 l 113 691 l 149 691 q 163 687 158 691 q 170 673 169 683 l 176 566 q 283 666 221 629 q 420 703 344 703 q 619 614 548 703 q 690 350 690 526 q 670 208 690 274 q 612 94 650 143 q 518 18 574 46 q 389 -9 462 -9 q 267 16 319 -9 q 179 93 216 42 l 179 -244 l 113 -244 m 402 650 q 277 614 333 650 q 179 514 221 578 l 179 151 q 266 67 218 91 q 376 43 314 43 q 483 65 437 43 q 559 128 529 87 q 606 225 590 168 q 622 350 622 282 q 565 577 622 504 q 402 650 509 650 "},"4":{"x_min":43.90625,"x_max":776.875,"ha":806,"o":"m 597 335 l 776 335 l 776 298 q 772 286 776 291 q 758 282 767 282 l 597 282 l 597 0 l 537 0 l 537 282 l 73 282 q 57 286 63 282 q 50 298 52 291 l 43 331 l 537 984 l 597 984 l 597 335 m 537 849 q 537 874 537 861 q 540 901 538 887 l 116 335 l 537 335 l 537 849 "},"R":{"x_min":167,"x_max":843.546875,"ha":876,"o":"m 238 444 l 238 0 l 167 0 l 167 983 l 417 983 q 671 917 587 983 q 755 724 755 851 q 735 621 755 668 q 679 540 716 575 q 592 482 643 505 q 476 452 540 459 q 506 425 492 442 l 843 0 l 781 0 q 762 4 770 0 q 747 18 754 8 l 433 416 q 408 437 421 431 q 366 444 394 444 l 238 444 m 238 497 l 408 497 q 525 512 473 497 q 612 557 577 528 q 667 627 648 586 q 686 720 686 668 q 617 876 686 825 q 417 927 548 927 l 238 927 l 238 497 "},"\r":{"x_min":0,"x_max":0,"ha":0},"o":{"x_min":60,"x_max":690,"ha":751,"o":"m 375 702 q 508 676 449 702 q 607 604 567 651 q 668 492 647 558 q 690 345 690 427 q 668 199 690 264 q 607 87 647 134 q 508 16 567 41 q 375 -9 449 -9 q 242 16 301 -9 q 143 87 183 41 q 81 199 102 134 q 60 345 60 264 q 81 492 60 427 q 143 604 102 558 q 242 676 183 651 q 375 702 301 702 m 375 43 q 483 64 437 43 q 560 124 529 85 q 606 220 591 164 q 622 345 622 276 q 606 470 622 414 q 560 567 591 527 q 483 628 529 606 q 375 650 437 650 q 267 628 313 650 q 190 567 221 606 q 143 470 159 527 q 128 345 128 414 q 143 220 128 276 q 190 124 159 164 q 267 64 221 85 q 375 43 313 43 "},"5":{"x_min":102.875,"x_max":697,"ha":805,"o":"m 670 954 q 661 931 670 940 q 632 922 652 922 l 276 922 l 217 593 q 305 610 264 605 q 385 616 347 616 q 520 594 461 616 q 617 533 578 572 q 676 439 656 493 q 697 321 697 385 q 670 182 697 243 q 596 77 643 120 q 489 11 550 34 q 357 -11 427 -11 q 279 -3 316 -11 q 210 15 243 3 q 150 43 177 27 q 102 76 123 59 l 122 103 q 142 113 129 113 q 168 103 151 113 q 212 80 185 92 q 275 57 239 67 q 360 47 311 47 q 466 65 417 47 q 552 118 516 83 q 609 204 589 153 q 630 319 630 255 q 614 417 630 372 q 567 493 598 461 q 487 542 535 524 q 373 560 439 560 q 289 553 334 560 q 195 533 245 547 l 152 546 l 229 983 l 670 983 l 670 954 "}}}
